<svg width="207" height="242" viewBox="0 0 207 242" fill="none" xmlns="http://www.w3.org/2000/svg">
<rect x="31.0098" y="179.726" width="79" height="79" transform="rotate(-39 31.0098 179.726)" fill="white"/>
<path d="M33.803 149.757L33.0273 156.839L29.8707 152.941L33.803 149.757ZM28.3769 160.605L25.2202 156.707L29.1526 153.523L32.3092 157.421L28.3769 160.605ZM23.7264 164.371L20.5698 160.473L24.5021 157.289L27.6588 161.187L23.7264 164.371ZM19.1102 168.109L15.9535 164.211L19.8859 161.027L23.0426 164.925L19.1102 168.109ZM29.2892 152.223L26.1048 148.291L30.0372 145.106L33.2215 149.039L29.2892 152.223ZM15.372 163.493L12.1877 159.561L16.12 156.376L19.3044 160.309L15.372 163.493ZM25.5233 147.573L22.3389 143.64L26.2713 140.456L29.4557 144.388L25.5233 147.573ZM11.6062 158.843L8.42182 154.91L12.3542 151.726L15.5385 155.658L11.6062 158.843ZM21.7575 142.922L18.6008 139.024L22.5331 135.84L25.6898 139.738L21.7575 142.922ZM7.84032 154.192L4.68365 150.294L8.61601 147.11L11.7727 151.008L7.84032 154.192ZM14.8349 134.374L21.9516 135.122L18.0193 138.306L14.8349 134.374ZM13.3688 142.072L10.1845 138.139L14.1168 134.955L17.3012 138.887L13.3688 142.072ZM8.71841 145.838L5.53405 141.905L9.4664 138.721L12.6508 142.653L8.71841 145.838ZM4.10216 149.576L0.917798 145.643L4.85016 142.459L8.03452 146.391L4.10216 149.576ZM40.1462 151.075L36.9618 147.142L40.8942 143.958L44.0785 147.89L40.1462 151.075ZM36.3803 146.424L33.196 142.492L37.1283 139.307L40.3127 143.24L36.3803 146.424ZM32.6422 141.808L29.4578 137.876L33.3902 134.691L36.5745 138.624L32.6422 141.808ZM28.8763 137.157L25.6919 133.225L29.6243 130.041L32.8087 133.973L28.8763 137.157ZM25.1105 132.507L21.9261 128.575L25.8584 125.39L29.0428 129.323L25.1105 132.507ZM61.7545 127.122L61.0065 134.239L57.8222 130.306L61.7545 127.122ZM56.3561 138.005L53.1717 134.072L57.1041 130.888L60.2885 134.82L56.3561 138.005ZM51.7399 141.743L48.5555 137.811L52.4879 134.626L55.6722 138.558L51.7399 141.743ZM51.0218 142.324L43.9051 141.576L47.8374 138.392L51.0218 142.324ZM57.2407 129.588L54.0563 125.656L57.9887 122.472L61.1731 126.404L57.2407 129.588ZM50.3182 121.04L57.4349 121.788L53.5025 124.972L50.3182 121.04ZM48.8521 128.738L45.6677 124.806L49.6001 121.621L52.7844 125.554L48.8521 128.738ZM44.2358 132.476L41.0515 128.544L44.9838 125.359L48.1682 129.292L44.2358 132.476ZM43.5178 133.058L36.401 132.31L40.3334 129.125L43.5178 133.058ZM35.8195 131.592L32.6352 127.659L36.5675 124.475L39.7519 128.407L35.8195 131.592ZM42.7865 111.739L49.9032 112.487L45.9708 115.671L42.7865 111.739ZM41.3204 119.437L38.136 115.505L42.0684 112.32L45.2527 116.253L41.3204 119.437ZM36.7041 123.175L33.5198 119.243L37.4521 116.059L40.6365 119.991L36.7041 123.175ZM32.0537 126.941L32.8017 119.824L35.9861 123.757L32.0537 126.941ZM75.3455 122.627L72.1611 118.695L76.0935 115.511L79.2779 119.443L75.3455 122.627ZM71.5796 117.977L68.3953 114.045L72.3276 110.86L75.512 114.793L71.5796 117.977ZM67.8138 113.327L64.6294 109.394L68.5618 106.21L71.7461 110.142L67.8138 113.327ZM64.0756 108.71L60.8913 104.778L64.8236 101.594L68.008 105.526L64.0756 108.71ZM64.926 100.322L61.7417 96.3893L65.674 93.2049L68.8584 97.1373L64.926 100.322ZM60.3098 104.06L57.1254 100.127L61.0578 96.9431L64.2421 100.875L60.3098 104.06ZM55.6593 107.826L52.475 103.893L56.4073 100.709L59.5917 104.641L55.6593 107.826ZM86.8296 113.271L83.6452 109.339L87.5776 106.154L90.7619 110.087L86.8296 113.271ZM83.0637 108.621L79.8794 104.688L83.8117 101.504L86.9961 105.436L83.0637 108.621ZM79.3256 104.004L76.1412 100.072L80.0736 96.8877L83.2579 100.82L79.3256 104.004ZM75.5597 99.354L72.3753 95.4217L76.3077 92.2373L79.4921 96.1697L75.5597 99.354ZM71.7938 94.7036L68.6095 90.7712L72.5418 87.5869L75.7262 91.5192L71.7938 94.7036ZM108.308 89.3675L107.594 96.4566L104.41 92.5242L108.308 89.3675ZM102.943 100.222L99.7591 96.2901L103.691 93.1057L106.876 97.038L102.943 100.222ZM98.293 103.988L95.1086 100.056L99.041 96.8715L102.225 100.804L98.293 103.988ZM93.6767 107.726L90.4924 103.794L94.3905 100.637L97.5749 104.57L93.6767 107.726ZM103.828 91.8061L100.644 87.8738L104.542 84.7171L107.726 88.6494L103.828 91.8061ZM89.9109 103.076L86.7265 99.1436L90.6247 95.987L93.809 99.9193L89.9109 103.076ZM100.062 87.1557L96.8778 83.2233L100.776 80.0666L103.96 83.999L100.062 87.1557ZM95.4117 90.9215L92.2274 86.9892L96.1597 83.8048L99.3441 87.7372L95.4117 90.9215ZM90.7613 94.6874L87.5769 90.755L91.5093 87.5707L94.6936 91.503L90.7613 94.6874ZM86.145 98.4255L82.9607 94.4932L86.8588 91.3365L90.0432 95.2689L86.145 98.4255ZM96.324 82.5394L93.1396 78.6071L97.0378 75.4504L100.222 79.3828L96.324 82.5394ZM82.4069 93.8093L79.2225 89.8769L83.1207 86.7203L86.305 90.6526L82.4069 93.8093ZM89.3738 73.9566L96.4563 74.7323L92.5581 77.889L89.3738 73.9566ZM87.9077 81.6548L84.7233 77.7225L88.6557 74.5381L91.8401 78.4705L87.9077 81.6548ZM83.2573 85.4207L80.0729 81.4883L84.0053 78.304L87.1896 82.2363L83.2573 85.4207ZM78.641 89.1589L75.4567 85.2265L79.3548 82.0698L82.5392 86.0022L78.641 89.1589ZM129.64 72.1495L128.892 79.2662L125.708 75.3339L129.64 72.1495ZM124.276 83.0044L121.091 79.072L124.99 75.9153L128.174 79.8477L124.276 83.0044ZM119.625 86.7702L116.441 82.8379L120.373 79.6535L123.558 83.5859L119.625 86.7702ZM118.907 87.3517L111.791 86.6037L115.723 83.4194L118.907 87.3517ZM125.126 74.6158L121.942 70.6834L125.874 67.4991L129.059 71.4314L125.126 74.6158ZM111.209 85.8856L108.025 81.9533L111.957 78.7689L115.141 82.7013L111.209 85.8856ZM121.36 69.9653L118.204 66.0672L122.136 62.8828L125.293 66.781L121.36 69.9653ZM107.443 81.2352L104.287 77.337L108.219 74.1527L111.376 78.0508L107.443 81.2352ZM117.622 65.3491L114.438 61.4167L118.37 58.2324L121.555 62.1647L117.622 65.3491ZM103.705 76.619L100.521 72.6866L104.453 69.5022L107.637 73.4346L103.705 76.619ZM113.856 60.6986L110.672 56.7663L114.604 53.5819L117.789 57.5143L113.856 60.6986ZM99.9392 71.9685L96.7549 68.0362L100.687 64.8518L103.872 68.7841L99.9392 71.9685ZM140.796 69.6268L137.611 65.6945L141.544 62.5101L144.728 66.4425L140.796 69.6268ZM137.03 64.9764L133.846 61.044L137.778 57.8597L140.962 61.792L137.03 64.9764ZM133.264 60.3259L130.08 56.3936L134.012 53.2092L137.196 57.1416L133.264 60.3259ZM129.526 55.7097L126.342 51.7773L130.274 48.593L133.458 52.5253L129.526 55.7097ZM130.376 47.3211L127.192 43.3887L131.124 40.2044L134.309 44.1367L130.376 47.3211ZM125.76 51.0592L122.576 47.1269L126.508 43.9425L129.692 47.8749L125.76 51.0592ZM121.11 54.8251L117.925 50.8927L121.858 47.7084L125.042 51.6407L121.11 54.8251ZM152.28 60.2706L149.095 56.3382L153.028 53.1539L156.212 57.0862L152.28 60.2706ZM148.514 55.6201L145.33 51.6878L149.262 48.5034L152.446 52.4358L148.514 55.6201ZM144.776 51.0039L141.591 47.0715L145.524 43.8872L148.708 47.8195L144.776 51.0039ZM141.01 46.3534L137.826 42.4211L141.758 39.2367L144.942 43.1691L141.01 46.3534ZM137.244 41.703L134.06 37.7706L137.992 34.5863L141.176 38.5186L137.244 41.703ZM173.786 36.4011L173.038 43.5179L169.853 39.5855L173.786 36.4011ZM168.421 47.256L165.237 43.3237L169.169 40.1393L172.354 44.0717L168.421 47.256ZM163.771 51.0219L160.587 47.0895L164.519 43.9052L167.703 47.8375L163.771 51.0219ZM163.053 51.6034L155.936 50.8554L159.868 47.671L163.053 51.6034ZM169.272 38.8674L166.115 34.9693L170.047 31.7849L173.204 35.6831L169.272 38.8674ZM155.355 50.1373L152.198 46.2391L156.13 43.0548L159.287 46.9529L155.355 50.1373ZM165.534 34.2512L162.349 30.3188L166.282 27.1345L169.466 31.0668L165.534 34.2512ZM151.616 45.521L148.432 41.5887L152.364 38.4043L155.549 42.3367L151.616 45.521ZM161.768 29.6007L158.583 25.6684L162.516 22.484L165.7 26.4164L161.768 29.6007ZM147.851 40.8706L144.666 36.9382L148.599 33.7539L151.783 37.6862L147.851 40.8706ZM154.845 21.0521L161.934 21.7659L158.002 24.9503L154.845 21.0521ZM153.386 28.6885L150.229 24.7903L154.161 21.6059L157.318 25.5041L153.386 28.6885ZM148.735 32.4543L145.579 28.5561L149.511 25.3718L152.668 29.2699L148.735 32.4543ZM144.085 36.2202L144.86 29.1376L148.017 33.0358L144.085 36.2202ZM194.579 26.0744L191.394 22.142L195.327 18.9577L198.511 22.89L194.579 26.0744ZM180.661 37.3443L177.477 33.4119L181.409 30.2276L184.594 34.1599L180.661 37.3443ZM190.84 21.4582L187.656 17.5258L191.588 14.3414L194.773 18.2738L190.84 21.4582ZM190.122 22.0396L183.04 21.264L186.938 18.1073L190.122 22.0396ZM176.923 32.728L173.739 28.7957L177.671 25.6113L180.856 29.5437L176.923 32.728ZM187.074 16.8077L183.89 12.8754L187.822 9.69099L191.007 13.6234L187.074 16.8077ZM179.274 16.6135L186.356 17.3892L182.458 20.5459L179.274 16.6135ZM181.74 21.1274L174.623 20.3794L178.556 17.195L181.74 21.1274ZM173.157 28.0776L169.973 24.1452L173.905 20.9609L177.09 24.8932L173.157 28.0776ZM183.309 12.1573L180.124 8.22491L184.057 5.04055L187.241 8.97291L183.309 12.1573ZM170.858 15.7289L177.974 16.4769L174.042 19.6613L170.858 15.7289ZM169.392 23.4271L166.207 19.4948L170.14 16.3104L173.324 20.2428L169.392 23.4271ZM179.57 7.54102L176.386 3.60867L180.318 0.424305L183.503 4.35666L179.57 7.54102ZM165.653 18.8109L162.469 14.8785L166.401 11.6942L169.586 15.6265L165.653 18.8109Z" fill="white"/>
</svg>
