<svg width="1730" height="1003" viewBox="0 0 1730 1003" fill="none" xmlns="http://www.w3.org/2000/svg">
<path fill-rule="evenodd" clip-rule="evenodd" d="M675.138 666.311L712.051 744.188L477.215 855.496L438.704 774.247L462.944 763.036L424.326 679.537L399.3 691.111L365.907 620.66L600.743 509.353L635.734 583.176L608.918 595.578L647.535 679.077L675.138 666.311Z" fill="#F73B00"/>
<path fill-rule="evenodd" clip-rule="evenodd" d="M37.4862 1.5H0.5L2.92859 542.5L97.8229 746.475L97.7042 746.532L105.548 763.079L105.806 763.636L105.81 763.634L144.07 844.353L1.50003 911.928V1002H165.601L429.493 876.921L429.471 876.874L443.848 870.06L405.674 789.523L380.749 801.05L342.132 717.551L366.27 706.387L332.54 635.224L332.352 635.313L37.4862 1.5Z" fill="#F73B00"/>
<path fill-rule="evenodd" clip-rule="evenodd" d="M941.742 545.283L976.466 618.543L741.63 729.85L704.973 652.513L729.73 641.063L691.112 557.564L665.569 569.377L630.323 495.014L865.158 383.707L902.337 462.147L877.712 473.536L916.329 557.036L941.742 545.283Z" fill="#F73B00"/>
<path d="M1355.39 0.791748L1164.27 242.583L1164.41 242.687L1164.27 242.75L1201.48 321.259L1227.7 309.135L1266.31 392.635L1240.89 404.394L1270.71 467.303L1270.64 467.336L1524 1002.5H1730V832.5L1505.7 355.92L1505.54 355.996L1416.48 168.092L1548.72 0.791748H1355.39Z" fill="#F73B00"/>
<path fill-rule="evenodd" clip-rule="evenodd" d="M1206.97 420.08L1241.37 492.666L1006.54 603.973L972.072 531.255L998.524 519.021L959.906 435.522L932.667 448.12L895.231 369.137L1130.07 257.83L1167.57 336.945L1145.5 347.149L1184.12 430.648L1206.97 420.08Z" fill="#F73B00"/>
</svg>
