<svg width="531" height="429" viewBox="0 0 531 429" fill="none" xmlns="http://www.w3.org/2000/svg">
<path d="M99.9036 418.875L96.8042 411.695L103.984 408.596L107.083 415.775L99.9036 418.875ZM96.2651 410.447L93.1657 403.267L100.345 400.168L103.445 407.347L96.2651 410.447ZM122.089 380.708L118.009 390.987L114.91 383.807L122.089 380.708ZM109.518 394.652L106.419 387.473L113.599 384.373L116.698 391.553L109.518 394.652ZM101.09 398.291L97.9909 391.111L105.108 388.039L108.207 395.218L101.09 398.291ZM92.5997 401.956L89.5003 394.776L96.6798 391.677L99.7793 398.857L92.5997 401.956ZM114.344 382.496L111.244 375.317L118.424 372.217L121.523 379.397L114.344 382.496ZM88.9343 393.465L85.8349 386.286L93.0144 383.186L96.1139 390.366L88.9343 393.465ZM107.606 366.888L117.885 370.969L110.705 374.068L107.606 366.888ZM102.215 377.733L99.1152 370.554L106.295 367.454L109.394 374.634L102.215 377.733ZM93.7864 381.372L90.687 374.192L97.8041 371.12L100.904 378.299L93.7864 381.372ZM85.2958 385.037L82.1964 377.858L89.376 374.758L92.4754 381.938L85.2958 385.037ZM163.601 391.377L160.501 384.197L167.681 381.098L170.78 388.277L163.601 391.377ZM138.191 402.346L135.092 395.166L142.271 392.067L145.371 399.246L138.191 402.346ZM159.962 382.948L156.863 375.769L164.042 372.669L167.142 379.849L159.962 382.948ZM134.553 393.918L131.453 386.738L138.633 383.639L141.732 390.818L134.553 393.918ZM156.297 374.458L153.197 367.278L160.377 364.179L163.476 371.358L156.297 374.458ZM147.869 378.096L144.769 370.917L151.949 367.817L155.048 374.997L147.869 378.096ZM139.378 381.762L136.279 374.582L143.458 371.483L146.558 378.662L139.378 381.762ZM130.887 385.427L127.788 378.248L134.968 375.148L138.067 382.328L130.887 385.427ZM152.631 365.967L149.532 358.788L156.711 355.688L159.811 362.868L152.631 365.967ZM127.222 376.936L124.123 369.757L131.302 366.658L134.402 373.837L127.222 376.936ZM145.893 350.359L156.172 354.44L148.993 357.539L145.893 350.359ZM140.565 361.177L137.465 353.998L144.645 350.899L147.744 358.078L140.565 361.177ZM132.074 364.843L128.975 357.663L136.154 354.564L139.254 361.743L132.074 364.843ZM123.584 368.508L127.664 358.229L130.763 365.409L123.584 368.508ZM202.864 374.427L199.764 367.247L206.944 364.148L210.043 371.327L202.864 374.427ZM177.454 385.396L174.355 378.216L181.535 375.117L184.634 382.296L177.454 385.396ZM196.099 358.756L206.378 362.837L199.198 365.936L196.099 358.756ZM197.887 366.502L187.671 362.395L194.788 359.322L197.887 366.502ZM173.789 376.905L170.69 369.726L177.869 366.626L180.969 373.806L173.789 376.905ZM199.613 347.166L195.533 357.445L192.434 350.266L199.613 347.166ZM187.105 361.084L184.005 353.904L191.122 350.832L194.222 358.011L187.105 361.084ZM178.614 364.749L175.515 357.57L182.694 354.47L185.794 361.65L178.614 364.749ZM170.124 368.415L167.024 361.235L174.204 358.136L177.303 365.315L170.124 368.415ZM191.895 349.017L188.795 341.838L195.975 338.738L199.074 345.918L191.895 349.017ZM166.485 359.986L163.386 352.807L170.565 349.707L173.665 356.887L166.485 359.986ZM185.13 333.347L195.409 337.427L188.229 340.527L185.13 333.347ZM179.801 344.165L176.701 336.985L183.819 333.913L186.918 341.093L179.801 344.165ZM171.31 347.83L168.211 340.651L175.39 337.551L178.49 344.731L171.31 347.83ZM162.82 351.496L159.72 344.316L166.9 341.217L169.999 348.396L162.82 351.496ZM241.341 357.667L238.242 350.488L245.422 347.389L248.521 354.568L241.341 357.667ZM232.851 361.333L229.751 354.153L236.931 351.054L240.03 358.233L232.851 361.333ZM224.423 364.971L221.323 357.792L228.503 354.692L231.602 361.872L224.423 364.971ZM215.932 368.637L212.833 361.457L220.012 358.358L223.112 365.537L215.932 368.637ZM212.294 360.209L209.194 353.029L216.374 349.93L219.473 357.109L212.294 360.209ZM225.547 344.414L222.448 337.235L229.627 334.135L232.727 341.315L225.547 344.414ZM217.119 348.053L214.019 340.873L221.199 337.774L224.298 344.953L217.119 348.053ZM208.628 351.718L205.529 344.538L212.708 341.439L215.808 348.619L208.628 351.718ZM204.963 343.227L201.863 336.048L209.043 332.948L212.142 340.128L204.963 343.227ZM226.734 323.83L223.634 316.65L230.814 313.551L233.913 320.731L226.734 323.83ZM218.243 327.495L215.144 320.316L222.323 317.216L225.423 324.396L218.243 327.495ZM209.815 331.134L206.715 323.954L213.895 320.855L216.994 328.034L209.815 331.134ZM201.324 334.799L198.225 327.62L205.404 324.52L208.504 331.7L201.324 334.799ZM280.114 341.077L277.015 333.898L284.194 330.798L287.294 337.978L280.114 341.077ZM254.705 352.047L251.605 344.867L258.785 341.768L261.884 348.947L254.705 352.047ZM276.476 332.649L273.376 325.47L280.556 322.37L283.655 329.55L276.476 332.649ZM275.165 333.215L264.948 329.108L272.065 326.036L275.165 333.215ZM251.066 343.618L247.967 336.439L255.146 333.339L258.246 340.519L251.066 343.618ZM272.81 324.159L269.711 316.979L276.89 313.88L279.99 321.059L272.81 324.159ZM261.283 320.617L271.499 324.725L264.382 327.797L261.283 320.617ZM263.071 328.363L252.792 324.283L259.972 321.183L263.071 328.363ZM247.401 335.128L244.302 327.948L251.481 324.849L254.581 332.028L247.401 335.128ZM269.145 315.668L266.045 308.488L273.225 305.389L276.324 312.569L269.145 315.668ZM249.127 315.792L259.406 319.872L252.226 322.972L249.127 315.792ZM243.736 326.637L240.636 319.458L247.816 316.358L250.915 323.538L243.736 326.637ZM265.506 307.24L262.407 300.06L269.587 296.961L272.686 304.14L265.506 307.24ZM240.097 318.209L236.998 311.03L244.177 307.93L247.277 315.11L240.097 318.209ZM301.66 331.776L298.561 324.596L305.74 321.497L308.84 328.676L301.66 331.776ZM297.995 323.285L294.895 316.106L302.075 313.006L305.174 320.186L297.995 323.285ZM294.329 314.795L291.23 307.615L298.409 304.516L301.509 311.695L294.329 314.795ZM290.691 306.367L287.591 299.187L294.771 296.088L297.87 303.267L290.691 306.367ZM295.454 294.237L292.354 287.058L299.534 283.958L302.633 291.138L295.454 294.237ZM287.025 297.876L283.926 290.696L291.106 287.597L294.205 294.776L287.025 297.876ZM278.535 301.541L275.435 294.362L282.615 291.262L285.714 298.442L278.535 301.541ZM348.15 311.706L345.05 304.527L352.23 301.427L355.329 308.607L348.15 311.706ZM322.74 322.675L319.641 315.496L326.82 312.397L329.92 319.576L322.74 322.675ZM344.484 303.216L341.385 296.036L348.564 292.937L351.664 300.116L344.484 303.216ZM319.075 314.185L315.975 307.005L323.155 303.906L326.254 311.085L319.075 314.185ZM340.846 294.787L337.746 287.608L344.926 284.508L348.025 291.688L340.846 294.787ZM332.418 298.426L329.318 291.246L336.435 288.174L339.535 295.353L332.418 298.426ZM323.927 302.091L320.828 294.912L328.007 291.812L331.107 298.992L323.927 302.091ZM315.436 305.757L312.337 298.577L319.517 295.478L322.616 302.657L315.436 305.757ZM337.18 286.297L334.081 279.117L341.261 276.018L344.36 283.197L337.18 286.297ZM311.771 297.266L308.672 290.087L315.851 286.987L318.951 294.167L311.771 297.266ZM333.515 277.806L330.416 270.627L337.595 267.527L340.695 274.707L333.515 277.806ZM308.106 288.776L305.006 281.596L312.186 278.497L315.285 285.676L308.106 288.776ZM386.627 294.947L383.528 287.768L390.707 284.668L393.807 291.848L386.627 294.947ZM378.137 298.613L375.037 291.433L382.217 288.334L385.316 295.513L378.137 298.613ZM369.709 302.251L366.609 295.071L373.789 291.972L376.888 299.152L369.709 302.251ZM361.218 305.916L358.119 298.737L365.298 295.637L368.398 302.817L361.218 305.916ZM357.58 297.488L354.48 290.309L361.66 287.209L364.759 294.389L357.58 297.488ZM370.833 281.694L367.733 274.514L374.913 271.415L378.012 278.594L370.833 281.694ZM362.405 285.332L359.305 278.153L366.485 275.053L369.584 282.233L362.405 285.332ZM353.914 288.998L350.815 281.818L357.994 278.719L361.094 285.898L353.914 288.998ZM350.249 280.507L347.149 273.328L354.329 270.228L357.428 277.408L350.249 280.507ZM372.02 261.11L368.92 253.93L376.1 250.831L379.199 258.01L372.02 261.11ZM363.529 264.775L360.43 257.595L367.609 254.496L370.709 261.676L363.529 264.775ZM355.101 268.414L352.001 261.234L359.181 258.135L362.28 265.314L355.101 268.414ZM346.61 272.079L343.511 264.899L350.69 261.8L353.79 268.979L346.61 272.079ZM429.48 268.078L425.4 278.357L422.301 271.177L429.48 268.078ZM416.909 282.022L413.81 274.843L420.99 271.743L424.089 278.923L416.909 282.022ZM408.481 285.661L405.382 278.481L412.561 275.382L415.661 282.561L408.481 285.661ZM407.17 286.227L396.891 282.147L404.071 279.047L407.17 286.227ZM421.735 269.866L418.635 262.687L425.815 259.587L428.914 266.767L421.735 269.866ZM414.997 254.259L425.276 258.339L418.096 261.438L414.997 254.259ZM409.606 265.104L406.506 257.924L413.686 254.825L416.785 262.004L409.606 265.104ZM401.177 268.742L398.078 261.563L405.258 258.463L408.357 265.643L401.177 268.742ZM399.866 269.308L389.587 265.228L396.767 262.129L399.866 269.308ZM389.021 263.917L385.922 256.737L393.102 253.638L396.201 260.817L389.021 263.917ZM407.666 237.277L417.945 241.358L410.765 244.457L407.666 237.277ZM402.275 248.122L399.175 240.943L406.355 237.843L409.454 245.023L402.275 248.122ZM393.847 251.761L390.747 244.581L397.927 241.482L401.026 248.661L393.847 251.761ZM385.356 255.426L389.436 245.147L392.536 252.327L385.356 255.426ZM468.507 259.6L465.407 252.42L472.587 249.321L475.686 256.5L468.507 259.6ZM460.016 263.265L456.917 256.085L464.096 252.986L467.196 260.166L460.016 263.265ZM451.588 266.903L448.489 259.724L455.668 256.624L458.768 263.804L451.588 266.903ZM443.098 270.569L439.998 263.389L447.178 260.29L450.277 267.469L443.098 270.569ZM439.459 262.141L436.36 254.961L443.539 251.862L446.639 259.041L439.459 262.141ZM452.712 246.346L449.613 239.167L456.793 236.067L459.892 243.247L452.712 246.346ZM444.284 249.985L441.185 242.805L448.364 239.706L451.464 246.885L444.284 249.985ZM435.794 253.65L432.694 246.47L439.874 243.371L442.973 250.551L435.794 253.65ZM432.128 245.159L429.029 237.98L436.208 234.88L439.308 242.06L432.128 245.159ZM453.899 225.762L450.8 218.582L457.979 215.483L461.079 222.663L453.899 225.762ZM445.409 229.427L442.309 222.248L449.489 219.148L452.588 226.328L445.409 229.427ZM436.98 233.066L433.881 225.886L441.06 222.787L444.16 229.966L436.98 233.066ZM428.49 236.731L425.39 229.552L432.57 226.452L435.669 233.632L428.49 236.731ZM511.36 232.73L507.28 243.009L504.18 235.83L511.36 232.73ZM498.789 246.675L495.69 239.495L502.869 236.396L505.969 243.575L498.789 246.675ZM490.361 250.313L487.261 243.134L494.441 240.034L497.54 247.214L490.361 250.313ZM489.05 250.879L478.771 246.799L485.95 243.7L489.05 250.879ZM503.614 234.519L500.515 227.339L507.694 224.24L510.794 231.419L503.614 234.519ZM496.876 218.911L507.155 222.991L499.976 226.091L496.876 218.911ZM491.485 229.756L488.386 222.576L495.565 219.477L498.665 226.657L491.485 229.756ZM483.057 233.394L479.958 226.215L487.137 223.115L490.237 230.295L483.057 233.394ZM481.746 233.96L471.467 229.88L478.647 226.781L481.746 233.96ZM470.901 228.569L467.802 221.39L474.981 218.29L478.081 225.47L470.901 228.569ZM489.545 201.93L499.824 206.01L492.645 209.109L489.545 201.93ZM484.154 212.775L481.055 205.595L488.234 202.496L491.334 209.675L484.154 212.775ZM475.726 216.413L472.627 209.234L479.806 206.134L482.906 213.314L475.726 216.413ZM467.236 220.079L471.316 209.8L474.415 216.979L467.236 220.079Z" fill="#F73B00"/>
<path d="M136.143 58V47.88H146.263V58H136.143ZM124.175 58V47.88L134.295 47.88V58L124.175 58ZM112.207 58V47.88H122.327V58H112.207ZM110.447 58L100.327 47.88H110.447V58ZM100.327 46.032V35.912H110.447V46.032H100.327ZM100.327 34.152V24.032H110.447V34.152H100.327ZM100.327 22.184V12.064L110.447 12.064V22.184H100.327ZM100.327 10.216L100.327 0.0959966L110.447 0.0959966L110.447 10.216L100.327 10.216ZM190.625 58V47.88L200.745 47.88V58L190.625 58ZM154.809 58V47.88H164.929V58H154.809ZM190.625 46.12V36H200.745V46.12L190.625 46.12ZM154.809 46.12V36H164.929V46.12H154.809ZM190.625 34.152V24.032H200.745V34.152H190.625ZM178.745 34.152V24.032L188.865 24.032V34.152L178.745 34.152ZM166.777 34.152V24.032H176.897V34.152H166.777ZM154.809 34.152V24.032H164.929V34.152H154.809ZM190.625 22.184V12.064H200.745V22.184H190.625ZM154.809 22.184V12.064H164.929V22.184H154.809ZM190.625 0.184001L200.745 10.304H190.625V0.184001ZM178.745 10.304V0.184001L188.865 0.184001V10.304L178.745 10.304ZM166.777 10.304V0.184001L176.897 0.184001V10.304L166.777 10.304ZM154.809 10.304L164.929 0.184001V10.304L154.809 10.304ZM270.123 58V47.88H280.243V58H270.123ZM234.307 58V47.88H244.427V58H234.307ZM270.123 46.12V36L280.243 36V46.12H270.123ZM268.275 46.12L258.243 36H268.275V46.12ZM234.307 46.12V36H244.427V46.12H234.307ZM270.123 34.152V24.032H280.243V34.152L270.123 34.152ZM258.243 24.032L268.275 34.152H258.243V24.032ZM256.395 34.152L246.275 24.032L256.395 24.032V34.152ZM234.307 34.152V24.032H244.427V34.152H234.307ZM270.123 22.184V12.064L280.243 12.064V22.184H270.123ZM246.275 12.064L256.395 22.184L246.275 22.184V12.064ZM234.307 22.184V12.064L244.427 12.064V22.184H234.307ZM270.123 10.304V0.184001H280.243V10.304H270.123ZM234.307 10.304V0.184001L244.427 0.184001V10.304L234.307 10.304ZM334.55 47.88L324.43 58V47.88H334.55ZM312.55 58V47.88H322.582V58H312.55ZM300.582 58V47.88H310.702V58H300.582ZM298.734 58L288.614 47.88H298.734V58ZM324.43 46.032V35.912H334.55V46.032H324.43ZM288.614 46.032V35.912H298.734V46.032H288.614ZM324.43 34.064V24.032L334.55 24.032V34.064H324.43ZM288.614 34.064V24.032H298.734V34.064H288.614ZM324.43 22.184V12.064L334.55 12.064V22.184L324.43 22.184ZM288.614 22.184V12.064H298.734V22.184H288.614ZM324.43 10.216V0.0959966L334.55 0.0959966V10.216L324.43 10.216ZM288.614 10.216V0.0959966H298.734V10.216H288.614ZM343.096 57.912V47.792H353.216V57.912H343.096ZM343.096 45.944V35.824H353.216V45.944H343.096ZM343.096 34.064V23.944H353.216V34.064H343.096ZM343.096 22.096V11.976L353.216 11.976V22.096H343.096ZM343.096 10.128V0.00799775L353.216 0.00799775V10.128L343.096 10.128ZM372.509 58V47.88H382.629V58H372.509ZM372.509 46.032V35.912H382.629V46.032H372.509ZM372.509 34.064V23.944L382.629 23.944V34.064H372.509ZM372.509 22.184V12.064L382.629 12.064V22.184L372.509 22.184ZM384.389 10.216V0.0959966H394.509V10.216H384.389ZM372.509 10.216V0.0959966L382.629 0.0959966V10.216L372.509 10.216ZM360.541 10.216V0.0959966L370.661 0.0959966V10.216L360.541 10.216Z" fill="#F73B00"/>
<path d="M463.06 165L492.478 165V92L463.06 92V97.6154L487.03 97.6154V159.385L463.06 159.385V165Z" fill="white"/>
<path d="M29.4179 165L0 165L0 92L29.4179 92V97.6154L5.44776 97.6154L5.44776 159.385L29.4179 159.385V165Z" fill="white"/>
<path d="M109.071 151.43L95.6188 165V151.43H109.071ZM79.5708 165L79.5708 151.43H93.1408L93.1408 165H79.5708ZM63.5228 165V151.43H77.0928V165H63.5228ZM61.1628 165L47.5928 151.43H61.1628V165ZM95.6188 148.952V135.382H109.071V148.952H95.6188ZM47.5928 148.952V135.382H61.1628V148.952H47.5928ZM47.5928 132.904V119.334H61.1628V132.904H47.5928ZM95.6188 116.974V103.404H109.071V116.974H95.6188ZM47.5928 116.974V103.404H61.1628V116.974H47.5928ZM95.6188 87.356L109.071 100.926H95.6188V87.356ZM79.5708 100.926V87.356H93.1408V100.926H79.5708ZM63.5228 100.926V87.356H77.0928V100.926H63.5228ZM47.5928 100.926L61.1628 87.356V100.926L47.5928 100.926ZM120.64 164.882V151.312H134.21V164.882H120.64ZM120.64 148.834V135.264H134.21V148.834H120.64ZM120.64 132.904V119.334H134.21V132.904H120.64ZM120.64 116.856V103.286H134.21V116.856H120.64ZM120.64 100.808V87.238H134.21V100.808H120.64ZM192.531 165V151.43H206.101V165H192.531ZM144.505 165V151.43H158.075V165H144.505ZM192.531 149.07V135.5H206.101V149.07H192.531ZM190.053 149.07L176.601 135.5H190.053V149.07ZM144.505 149.07V135.5H158.075V149.07H144.505ZM192.531 133.022V119.452H206.101V133.022H192.531ZM176.601 119.452L190.053 133.022H176.601V119.452ZM174.123 133.022L160.553 119.452H174.123V133.022ZM144.505 133.022V119.452H158.075V133.022H144.505ZM192.531 116.974V103.404H206.101V116.974H192.531ZM160.553 103.404L174.123 116.974H160.553V103.404ZM144.505 116.974V103.404H158.075V116.974H144.505ZM192.531 101.044V87.474H206.101V101.044H192.531ZM144.505 101.044V87.474H158.075V101.044H144.505ZM265.351 164.764V151.194H278.921V164.764H265.351ZM249.303 164.764V151.194H262.873V164.764H249.303ZM233.373 164.764V151.194H246.943V164.764H233.373ZM217.325 164.764V151.194H230.895V164.764H217.325ZM217.325 148.834V135.264H230.895V148.834H217.325ZM249.303 132.786V119.216H262.873V132.786H249.303ZM233.373 132.786V119.216H246.943V132.786L233.373 132.786ZM217.325 132.786V119.216H230.895V132.786H217.325ZM217.325 116.738V103.168H230.895V116.738H217.325ZM265.351 100.808V87.238H278.921V100.808H265.351ZM249.303 100.808V87.238H262.873V100.808H249.303ZM233.373 100.808V87.238H246.943V100.808H233.373ZM217.325 100.808V87.238H230.895V100.808H217.325ZM354.345 165V151.43H367.915V165H354.345ZM322.367 165V151.43H335.937V165H322.367ZM290.389 165V151.43H303.841V165H290.389ZM354.345 148.952V135.382H367.915V148.952H354.345ZM322.367 148.952V135.382H335.937V148.952H322.367ZM290.389 148.952V135.382H303.841V148.952H290.389ZM354.345 132.904V119.334H367.915V132.904L354.345 132.904ZM322.367 132.904V119.334L335.937 119.334V132.904H322.367ZM290.389 132.904V119.334H303.841V132.904H290.389ZM354.345 116.974V103.404H367.915V116.974H354.345ZM322.367 116.974V103.404H335.937V116.974L322.367 116.974ZM290.389 116.974V103.404H303.841V116.974H290.389ZM354.345 87.356L367.915 100.926H354.345V87.356ZM338.415 100.926V87.356H351.867V100.926H338.415ZM322.367 87.356L335.937 100.926H322.367V87.356ZM306.319 100.926V87.356H319.889V100.926H306.319ZM290.389 100.926L303.841 87.356V100.926L290.389 100.926ZM428.292 165V151.43H441.862V165L428.292 165ZM380.266 165V151.43H393.836V165H380.266ZM428.292 149.07V135.5H441.862V149.07H428.292ZM380.266 149.07V135.5H393.836V149.07H380.266ZM428.292 133.022V119.452H441.862V133.022H428.292ZM412.362 133.022V119.452H425.932V133.022H412.362ZM396.314 133.022V119.452H409.884V133.022H396.314ZM380.266 133.022V119.452H393.836V133.022H380.266ZM428.292 116.974V103.404H441.862V116.974H428.292ZM380.266 116.974V103.404H393.836V116.974H380.266ZM428.292 87.474L441.862 101.044L428.292 101.044V87.474ZM412.362 101.044V87.474H425.932V101.044H412.362ZM396.314 101.044V87.474H409.884V101.044H396.314ZM380.266 101.044L393.836 87.474V101.044H380.266Z" fill="white"/>
<path d="M78.1128 77.63L73.7428 81.962V77.63H78.1128ZM68.5748 81.962V77.63H72.9448V81.962H68.5748ZM63.4068 81.962V77.63H67.7768V81.962H63.4068ZM58.2768 81.962V77.63H62.6468V81.962H58.2768ZM73.7428 76.832V72.462H78.1128V76.832H73.7428ZM58.2768 76.832V72.462H62.6468V76.832H58.2768ZM73.7428 71.664V67.294H78.1128V71.664L73.7428 71.664ZM58.2768 71.664V67.294H62.6468L62.6468 71.664H58.2768ZM73.7428 66.496V62.164H78.1128V66.496H73.7428ZM58.2768 66.496V62.164H62.6468V66.496H58.2768ZM73.7428 56.996L78.1128 61.366H73.7428V56.996ZM68.5748 61.366V56.996H72.9448V61.366H68.5748ZM63.4068 61.366V56.996H67.7768V61.366H63.4068ZM58.2768 61.366V56.996H62.6468V61.366H58.2768ZM101.528 77.63L97.1579 82V77.63H101.528ZM92.0279 82V77.63H96.3599V82H92.0279ZM86.8599 82V77.63H91.2299V82H86.8599ZM86.0619 82L81.6919 77.63H86.0619V82ZM97.1579 76.832V72.462H101.528V76.832H97.1579ZM81.6919 76.832V72.462H86.0619V76.832H81.6919ZM97.1579 71.664V67.332H101.528V71.664H97.1579ZM81.6919 71.664V67.332H86.0619V71.664H81.6919ZM97.1579 66.534V62.164H101.528V66.534H97.1579ZM81.6919 66.534V62.164H86.0619V66.534H81.6919ZM97.1579 61.366V56.996H101.528V61.366H97.1579ZM81.6919 61.366V56.996H86.0619V61.366H81.6919Z" fill="white"/>
<path d="M219.259 308.297L216.16 301.118L223.339 298.018L226.439 305.198L219.259 308.297ZM210.768 311.963L207.669 304.783L214.849 301.684L217.948 308.863L210.768 311.963ZM202.34 315.601L199.241 308.422L206.42 305.322L209.52 312.502L202.34 315.601ZM193.85 319.267L190.75 312.087L197.93 308.988L201.029 316.167L193.85 319.267ZM190.211 310.839L187.112 303.659L194.291 300.56L197.391 307.739L190.211 310.839ZM203.465 295.044L200.365 287.865L207.545 284.765L210.644 291.945L203.465 295.044ZM195.036 298.683L191.937 291.503L199.117 288.404L202.216 295.583L195.036 298.683ZM186.546 302.348L183.446 295.168L190.626 292.069L193.725 299.249L186.546 302.348ZM182.88 293.857L179.781 286.678L186.961 283.578L190.06 290.758L182.88 293.857ZM204.651 274.46L201.552 267.28L208.731 264.181L211.831 271.36L204.651 274.46ZM196.161 278.125L193.061 270.946L200.241 267.846L203.34 275.026L196.161 278.125ZM187.733 281.764L184.633 274.584L191.813 271.485L194.912 278.664L187.733 281.764ZM179.242 285.429L176.143 278.25L183.322 275.15L186.421 282.33L179.242 285.429ZM258.032 291.707L254.932 284.528L262.112 281.428L265.211 288.608L258.032 291.707ZM232.622 302.677L229.523 295.497L236.703 292.398L239.802 299.577L232.622 302.677ZM254.393 283.279L251.294 276.1L258.473 273L261.573 280.18L254.393 283.279ZM253.082 283.845L242.866 279.738L249.983 276.666L253.082 283.845ZM228.984 294.248L225.885 287.069L233.064 283.969L236.164 291.149L228.984 294.248ZM250.728 274.789L247.628 267.609L254.808 264.51L257.907 271.689L250.728 274.789ZM239.2 271.247L249.417 275.354L242.3 278.427L239.2 271.247ZM240.989 278.993L230.71 274.913L237.889 271.813L240.989 278.993ZM225.319 285.758L222.219 278.578L229.399 275.479L232.498 282.658L225.319 285.758ZM247.063 266.298L243.963 259.118L251.143 256.019L254.242 263.198L247.063 266.298ZM227.044 266.422L237.323 270.502L230.144 273.602L227.044 266.422ZM221.653 277.267L218.554 270.088L225.733 266.988L228.833 274.168L221.653 277.267ZM243.424 257.87L240.325 250.69L247.504 247.591L250.604 254.77L243.424 257.87ZM218.015 268.839L214.915 261.659L222.095 258.56L225.194 265.74L218.015 268.839ZM279.578 282.406L276.478 275.226L283.658 272.127L286.757 279.306L279.578 282.406ZM275.912 273.915L272.813 266.736L279.992 263.636L283.092 270.816L275.912 273.915ZM272.247 265.425L269.147 258.245L276.327 255.146L279.426 262.325L272.247 265.425ZM268.608 256.996L265.509 249.817L272.689 246.717L275.788 253.897L268.608 256.996ZM273.371 244.867L270.272 237.688L277.451 234.588L280.551 241.768L273.371 244.867ZM264.943 248.506L261.844 241.326L269.023 238.227L272.123 245.406L264.943 248.506ZM256.452 252.171L253.353 244.992L260.533 241.892L263.632 249.072L256.452 252.171ZM326.067 262.336L322.968 255.157L330.147 252.057L333.247 259.237L326.067 262.336ZM300.658 273.305L297.558 266.126L304.738 263.026L307.837 270.206L300.658 273.305ZM319.302 246.666L329.581 250.746L322.402 253.846L319.302 246.666ZM321.091 254.412L310.874 250.304L317.991 247.232L321.091 254.412ZM296.993 264.815L293.893 257.635L301.073 254.536L304.172 261.715L296.993 264.815ZM322.817 235.076L318.736 245.355L315.637 238.175L322.817 235.076ZM310.308 248.993L307.209 241.814L314.326 238.741L317.425 245.921L310.308 248.993ZM301.818 252.659L298.718 245.479L305.898 242.38L308.997 249.559L301.818 252.659ZM293.327 256.324L290.228 249.145L297.407 246.045L300.507 253.225L293.327 256.324ZM315.098 236.927L311.999 229.747L319.178 226.648L322.278 233.827L315.098 236.927ZM289.689 247.896L286.589 240.717L293.769 237.617L296.868 244.797L289.689 247.896ZM308.333 221.257L318.612 225.337L311.433 228.436L308.333 221.257ZM303.004 232.075L299.905 224.895L307.022 221.823L310.122 229.002L303.004 232.075ZM294.514 235.74L291.414 228.561L298.594 225.461L301.693 232.641L294.514 235.74ZM286.023 239.405L282.924 232.226L290.103 229.127L293.203 236.306L286.023 239.405ZM364.545 245.577L361.445 238.398L368.625 235.298L371.724 242.478L364.545 245.577ZM356.054 249.243L352.955 242.063L360.134 238.964L363.234 246.143L356.054 249.243ZM347.626 252.881L344.527 245.701L351.706 242.602L354.806 249.782L347.626 252.881ZM339.136 256.546L336.036 249.367L343.216 246.267L346.315 253.447L339.136 256.546ZM335.497 248.118L332.398 240.939L339.577 237.839L342.677 245.019L335.497 248.118ZM348.75 232.324L345.651 225.144L352.831 222.045L355.93 229.224L348.75 232.324ZM340.322 235.962L337.223 228.783L344.402 225.683L347.502 232.863L340.322 235.962ZM331.832 239.628L328.732 232.448L335.912 229.349L339.011 236.528L331.832 239.628ZM328.166 231.137L325.067 223.957L332.246 220.858L335.346 228.038L328.166 231.137ZM349.937 211.74L346.838 204.56L354.017 201.461L357.117 208.64L349.937 211.74ZM341.447 215.405L338.347 208.225L345.527 205.126L348.626 212.306L341.447 215.405ZM333.018 219.043L329.919 211.864L337.099 208.764L340.198 215.944L333.018 219.043ZM324.528 222.709L321.428 215.529L328.608 212.43L331.707 219.609L324.528 222.709Z" fill="#F73B00"/>
</svg>
