<svg width="188" height="228" viewBox="0 0 188 228" fill="none" xmlns="http://www.w3.org/2000/svg">
<rect x="37.0103" y="49.7264" width="79" height="79" transform="rotate(-39 37.0103 49.7264)" fill="white"/>
<path d="M33.8714 203.928L33.1234 211.045L29.939 207.113L33.8714 203.928ZM28.473 214.811L25.2886 210.879L29.221 207.694L32.4053 211.627L28.473 214.811ZM23.8567 218.549L20.6724 214.617L24.6047 211.432L27.7891 215.365L23.8567 218.549ZM23.1386 219.131L16.0219 218.383L19.9543 215.198L23.1386 219.131ZM29.3576 206.395L26.1732 202.462L30.1055 199.278L33.2899 203.21L29.3576 206.395ZM22.435 197.846L29.5517 198.594L25.6194 201.778L22.435 197.846ZM20.9689 205.544L17.7846 201.612L21.7169 198.428L24.9013 202.36L20.9689 205.544ZM16.3527 209.283L13.1683 205.35L17.1007 202.166L20.2851 206.098L16.3527 209.283ZM15.6346 209.864L8.51789 209.116L12.4503 205.932L15.6346 209.864ZM7.9364 208.398L4.75204 204.466L8.6844 201.281L11.8688 205.214L7.9364 208.398ZM14.9033 188.545L22.02 189.293L18.0877 192.478L14.9033 188.545ZM13.4372 196.243L10.2529 192.311L14.1852 189.127L17.3696 193.059L13.4372 196.243ZM8.82099 199.982L5.63663 196.049L9.56899 192.865L12.7533 196.797L8.82099 199.982ZM4.17055 203.747L4.91855 196.631L8.10291 200.563L4.17055 203.747ZM52.895 188.523L52.147 195.64L48.9626 191.708L52.895 188.523ZM47.5307 199.378L48.2445 192.289L51.4289 196.222L47.5307 199.378ZM53.8073 180.141L53.0316 187.224L49.8749 183.326L53.8073 180.141ZM48.3811 190.99L49.1568 183.907L52.3135 187.805L48.3811 190.99ZM49.2934 182.608L46.1091 178.675L50.0414 175.491L53.2258 179.423L49.2934 182.608ZM44.643 186.373L41.4586 182.441L45.391 179.257L48.5753 183.189L44.643 186.373ZM40.0267 190.112L36.8424 186.179L40.7405 183.023L43.9249 186.955L40.0267 190.112ZM39.3086 190.693L32.1919 189.945L36.1243 186.761L39.3086 190.693ZM45.5276 177.957L42.3432 174.025L46.2756 170.84L49.4599 174.773L45.5276 177.957ZM31.6104 189.227L28.4261 185.295L32.3584 182.11L35.5428 186.043L31.6104 189.227ZM41.7617 173.307L38.605 169.409L42.5374 166.224L45.6941 170.122L41.7617 173.307ZM27.8446 184.577L24.6879 180.678L28.6203 177.494L31.7769 181.392L27.8446 184.577ZM78.0704 174.648L74.886 170.715L78.8184 167.531L82.0027 171.463L78.0704 174.648ZM64.1532 185.918L60.9689 181.985L64.9012 178.801L68.0856 182.733L64.1532 185.918ZM74.3322 170.032L71.1478 166.099L75.0802 162.915L78.2646 166.847L74.3322 170.032ZM73.6141 170.613L66.5316 169.837L70.4298 166.681L73.6141 170.613ZM60.4151 181.301L57.2307 177.369L61.1631 174.185L64.3474 178.117L60.4151 181.301ZM70.5664 165.381L67.382 161.449L71.3144 158.264L74.4987 162.197L70.5664 165.381ZM62.7657 165.187L69.8483 165.963L65.9501 169.119L62.7657 165.187ZM65.232 169.701L58.1153 168.953L62.0477 165.768L65.232 169.701ZM56.6492 176.651L53.4649 172.719L57.3972 169.534L60.5816 173.467L56.6492 176.651ZM66.8005 160.731L63.6161 156.798L67.5485 153.614L70.7329 157.546L66.8005 160.731ZM54.3494 164.302L61.4662 165.05L57.5338 168.235L54.3494 164.302ZM52.8834 172.001L49.699 168.068L53.6314 164.884L56.8157 168.816L52.8834 172.001ZM63.0623 156.114L59.878 152.182L63.8103 148.998L66.9947 152.93L63.0623 156.114ZM49.1452 167.384L45.9608 163.452L49.8932 160.268L53.0776 164.2L49.1452 167.384ZM99.9203 150.443L99.1723 157.56L95.988 153.627L99.9203 150.443ZM94.5561 161.298L91.3717 157.366L95.3041 154.181L98.4884 158.114L94.5561 161.298ZM89.9056 165.064L86.7213 161.131L90.6536 157.947L93.838 161.879L89.9056 165.064ZM89.1876 165.645L82.0708 164.897L86.0032 161.713L89.1876 165.645ZM95.4065 152.909L92.2498 149.011L96.1822 145.827L99.3388 149.725L95.4065 152.909ZM81.4894 164.179L78.3327 160.281L82.265 157.097L85.4217 160.995L81.4894 164.179ZM91.6683 148.293L88.484 144.361L92.4163 141.176L95.6007 145.109L91.6683 148.293ZM77.7512 159.563L74.5668 155.631L78.4992 152.446L81.6835 156.379L77.7512 159.563ZM87.9025 143.643L84.7181 139.71L88.6505 136.526L91.8348 140.458L87.9025 143.643ZM73.9853 154.913L70.801 150.98L74.7333 147.796L77.9177 151.728L73.9853 154.913ZM80.9799 135.094L88.069 135.808L84.1366 138.992L80.9799 135.094ZM79.5204 142.73L76.3637 138.832L80.2961 135.648L83.4527 139.546L79.5204 142.73ZM74.8699 146.496L71.7133 142.598L75.6456 139.414L78.8023 143.312L74.8699 146.496ZM70.2195 150.262L70.9952 143.18L74.1518 147.078L70.2195 150.262ZM106.694 151.469L103.509 147.537L107.442 144.353L110.626 148.285L106.694 151.469ZM102.955 146.853L99.771 142.921L103.703 139.736L106.888 143.669L102.955 146.853ZM113.855 123.816L113.107 130.933L109.922 127L113.855 123.816ZM108.456 134.699L105.272 130.766L109.204 127.582L112.389 131.514L108.456 134.699ZM103.84 138.437L100.656 134.504L104.554 131.348L107.738 135.28L103.84 138.437ZM99.1895 142.203L96.0051 138.27L99.9375 135.086L103.122 139.018L99.1895 142.203ZM109.341 126.282L106.156 122.35L110.089 119.166L113.273 123.098L109.341 126.282ZM95.4236 137.552L92.2393 133.62L96.1716 130.435L99.356 134.368L95.4236 137.552ZM102.418 117.734L109.535 118.482L105.603 121.666L102.418 117.734ZM100.952 125.432L97.7678 121.5L101.7 118.315L104.885 122.248L100.952 125.432ZM96.3359 129.17L93.1516 125.238L97.0497 122.081L100.234 126.013L96.3359 129.17ZM91.6855 132.936L88.5011 129.004L92.4335 125.819L95.6178 129.752L91.6855 132.936ZM142.432 116.018L141.684 123.135L138.5 119.202L142.432 116.018ZM137.034 126.9L133.849 122.968L137.782 119.784L140.966 123.716L137.034 126.9ZM132.417 130.639L129.233 126.706L133.165 123.522L136.35 127.454L132.417 130.639ZM131.699 131.22L124.583 130.472L128.515 127.288L131.699 131.22ZM137.918 118.484L134.734 114.552L138.666 111.367L141.851 115.3L137.918 118.484ZM130.996 109.935L138.112 110.683L134.18 113.868L130.996 109.935ZM129.53 117.634L126.345 113.701L130.278 110.517L133.462 114.449L129.53 117.634ZM124.913 121.372L121.729 117.439L125.661 114.255L128.846 118.187L124.913 121.372ZM124.195 121.953L117.079 121.205L121.011 118.021L124.195 121.953ZM116.497 120.487L113.313 116.555L117.245 113.371L120.429 117.303L116.497 120.487ZM123.464 100.635L130.581 101.383L126.648 104.567L123.464 100.635ZM121.998 108.333L118.813 104.4L122.746 101.216L125.93 105.148L121.998 108.333ZM117.382 112.071L114.197 108.139L118.13 104.954L121.314 108.887L117.382 112.071ZM112.731 115.837L113.479 108.72L116.664 112.652L112.731 115.837ZM151.345 115.255L148.16 111.322L152.093 108.138L155.277 112.07L151.345 115.255ZM147.579 110.604L144.395 106.672L148.327 103.488L151.511 107.42L147.579 110.604ZM143.841 105.988L140.656 102.056L144.589 98.8713L147.773 102.804L143.841 105.988ZM140.075 101.338L136.891 97.4052L140.823 94.2209L144.007 98.1532L140.075 101.338ZM136.309 96.6872L133.125 92.7548L137.057 89.5704L140.241 93.5028L136.309 96.6872ZM172.953 91.3022L172.205 98.419L169.021 94.4866L172.953 91.3022ZM167.555 102.185L164.37 98.2524L168.303 95.0681L171.487 99.0004L167.555 102.185ZM162.939 105.923L159.754 101.991L163.687 98.8062L166.871 102.739L162.939 105.923ZM162.22 106.504L155.104 105.756L159.036 102.572L162.22 106.504ZM168.439 93.7685L165.255 89.8362L169.187 86.6518L172.372 90.5841L168.439 93.7685ZM161.517 85.2199L168.634 85.9679L164.701 89.1523L161.517 85.2199ZM160.051 92.9181L156.866 88.9858L160.799 85.8014L163.983 89.7338L160.051 92.9181ZM155.435 96.6563L152.25 92.7239L156.183 89.5396L159.367 93.4719L155.435 96.6563ZM154.716 97.2378L147.6 96.4898L151.532 93.3054L154.716 97.2378ZM147.018 95.7717L143.834 91.8393L147.766 88.655L150.951 92.5873L147.018 95.7717ZM153.985 75.919L161.102 76.667L157.169 79.8514L153.985 75.919ZM152.519 83.6172L149.335 79.6849L153.267 76.5005L156.451 80.4329L152.519 83.6172ZM147.903 87.3554L144.718 83.423L148.651 80.2387L151.835 84.171L147.903 87.3554ZM143.252 91.1212L144 84.0045L147.185 87.9369L143.252 91.1212Z" fill="white"/>
</svg>
